<?xml version="1.0"?>
<svg xmlns="http://www.w3.org/2000/svg" xmlns:xlink="http://www.w3.org/1999/xlink" version="1.1" id="Layer_1" x="0px" y="0px" viewBox="0 0 512 512" style="enable-background:new 0 0 512 512;" xml:space="preserve" width="512px" height="512px" class=""><g><g>
	<g>
		<path d="M503.467,0h-204.8c-4.719,0-8.533,3.823-8.533,8.533v204.8c0,4.71,3.814,8.533,8.533,8.533h204.8    c4.719,0,8.533-3.823,8.533-8.533V8.533C512,3.823,508.186,0,503.467,0z M494.933,204.8H307.2V17.067h187.733V204.8z" data-original="#000000" class="active-path" data-old_color="#000000" fill="#FFFFFF"/>
	</g>
</g><g>
	<g>
		<path d="M503.467,290.133h-204.8c-4.719,0-8.533,3.823-8.533,8.533v204.8c0,4.71,3.814,8.533,8.533,8.533h204.8    c4.719,0,8.533-3.823,8.533-8.533v-204.8C512,293.956,508.186,290.133,503.467,290.133z M494.933,494.933H307.2V307.2h187.733    V494.933z" data-original="#000000" class="active-path" data-old_color="#000000" fill="#FFFFFF"/>
	</g>
</g><g>
	<g>
		<path d="M213.333,290.133H8.533c-4.719,0-8.533,3.823-8.533,8.533v204.8C0,508.177,3.814,512,8.533,512h204.8    c4.719,0,8.533-3.823,8.533-8.533v-204.8C221.867,293.956,218.052,290.133,213.333,290.133z M204.8,494.933H17.067V307.2H204.8    V494.933z" data-original="#000000" class="active-path" data-old_color="#000000" fill="#FFFFFF"/>
	</g>
</g><g>
	<g>
		<path d="M196.267,17.067H25.6c-4.719,0-8.533,3.823-8.533,8.533v170.667c0,4.71,3.814,8.533,8.533,8.533h170.667    c4.719,0,8.533-3.823,8.533-8.533V25.6C204.8,20.89,200.986,17.067,196.267,17.067z M187.733,187.733h-153.6v-153.6h153.6V187.733    z" data-original="#000000" class="active-path" data-old_color="#000000" fill="#FFFFFF"/>
	</g>
</g></g> </svg>
